<svg width="25" height="25" viewBox="0 0 25 25" fill="none" xmlns="http://www.w3.org/2000/svg">
<path d="M12.4999 0.000183105C9.53181 0.000309299 6.66057 1.08329 4.39996 3.05534C2.13935 5.02739 0.636906 7.75982 0.161449 10.7637C-0.314007 13.7676 0.268554 16.847 1.8049 19.4508C3.34124 22.0546 5.7311 24.013 8.54687 24.9755C9.17187 25.0876 9.40624 24.7032 9.40624 24.3667C9.40624 24.0623 9.39061 23.0531 9.39061 21.9797C6.24999 22.5725 5.4375 21.1948 5.1875 20.4739C4.91009 19.7727 4.47035 19.1514 3.90626 18.6636C3.46876 18.4233 2.84376 17.8305 3.89062 17.8145C4.29035 17.859 4.67373 18.0016 5.00829 18.2303C5.34284 18.459 5.6187 18.7669 5.81249 19.1281C5.98346 19.443 6.21334 19.7202 6.48898 19.9439C6.76461 20.1675 7.08058 20.3332 7.41877 20.4314C7.75697 20.5296 8.11074 20.5585 8.45982 20.5163C8.8089 20.4741 9.14643 20.3617 9.45307 20.1855C9.50718 19.5339 9.79039 18.9248 10.25 18.4714C7.46873 18.151 4.5625 17.0455 4.5625 12.1434C4.54494 10.8697 5.00336 9.63736 5.84374 8.69912C5.4616 7.5921 5.50631 6.37722 5.96874 5.30287C5.96874 5.30287 7.01557 4.96643 9.40622 6.61651C11.4516 6.03976 13.6108 6.03976 15.6562 6.61651C18.0468 4.95043 19.0936 5.30287 19.0936 5.30287C19.5561 6.3772 19.6009 7.59211 19.2186 8.69912C20.0616 9.63575 20.5204 10.8692 20.4999 12.1434C20.4999 17.0616 17.578 18.151 14.7968 18.4714C15.0951 18.7814 15.3249 19.1536 15.4705 19.5627C15.616 19.9718 15.674 20.4082 15.6405 20.8423C15.6405 22.5565 15.6249 23.9342 15.6249 24.3668C15.6249 24.7032 15.8593 25.1037 16.4843 24.9755C19.2951 24.0052 21.6781 22.0422 23.2079 19.4371C24.7377 16.8319 25.3147 13.7542 24.836 10.7532C24.3572 7.75216 22.8538 5.02327 20.5942 3.05362C18.3346 1.08397 15.4658 0.00176577 12.4999 0.000183105Z" fill="#1BFF95"/>
</svg>
